<?xml version="1.0" encoding="UTF-8"?><svg id="Layer_2" xmlns="http://www.w3.org/2000/svg" viewBox="0 0 134.63 133.71"><defs><style>.cls-1{stroke-width:2.69px;}.cls-1,.cls-2,.cls-3,.cls-4,.cls-5{fill:none;stroke:#000;stroke-miterlimit:10;}.cls-2{stroke-linecap:round;}.cls-2,.cls-3{stroke-width:2.83px;}.cls-4{stroke-width:2.77px;}.cls-5{stroke-width:1.42px;}</style></defs><g id="Layer_1-2"><path class="cls-4" d="m88.99,106.69H13.38c-6.6,0-12-5.4-12-12V13.38C1.38,6.78,6.78,1.38,13.38,1.38h107.86c6.6,0,12,5.4,12,12v81.31"/><rect class="cls-1" x="88.99" y="56.25" width="44.25" height="76.11" rx="12" ry="12"/><path class="cls-1" d="m89.13,122.18h-53.02c-1.4,0-2.66.57-3.59,1.5s-1.49,2.19-1.49,3.59c0,2.8,2.29,5.09,5.08,5.09h74.34"/><path class="cls-5" d="m18.81,12.01h99.65c3.03,0,5.48,2.46,5.48,5.48v28.41c0,3.03-2.46,5.48-5.48,5.48H16.43c-1.71,0-3.1-1.39-3.1-3.1v-30.79c0-3.03,2.46-5.48,5.48-5.48Z"/><rect class="cls-5" x="13.33" y="61.56" width="50" height="15.93" rx="3" ry="3"/><rect class="cls-5" x="96.52" y="72.18" width="29.2" height="22.12" rx="3.55" ry="3.55"/><path class="cls-5" d="m88.99,78.9h-12.78c-1.95,0-3.55-1.6-3.55-3.55v-11.64c0-1.95,1.6-3.55,3.55-3.55h15.94"/><rect class="cls-5" x="95.27" y="100.14" width="12.81" height="11.38" rx="3.55" ry="3.55"/><rect class="cls-5" x="113.38" y="100.14" width="12.81" height="11.38" rx="3.55" ry="3.55"/><line class="cls-5" x1="1.85" y1="88.03" x2="90.04" y2="88.03"/><line class="cls-2" x1="117.21" y1="123.48" x2="103.74" y2="123.48"/><path class="cls-3" d="m48.45,107.58c0,1.42-1.45,4.94-3.82,8.55-1.97,2.99-5.03,5.4-6.3,6.06"/></g></svg>