<?xml version="1.0" encoding="UTF-8"?><svg id="Layer_2" xmlns="http://www.w3.org/2000/svg" viewBox="0 0 131.96 131.97"><defs><style>.cls-1{fill:#723144;stroke:#723144;stroke-miterlimit:10;stroke-width:2.83px;}</style></defs><g id="Layer_1-2"><path class="cls-1" d="m65.98,1.42C30.32,1.42,1.42,30.33,1.42,65.99c0,17.01,6.57,32.48,17.33,44.01.34.38.7.76,1.07,1.13,11.72,11.99,28.07,19.43,46.16,19.43s34.44-7.44,46.17-19.43c.36-.37.72-.74,1.06-1.12,10.76-11.54,17.34-27.01,17.34-44.02C130.55,30.33,101.64,1.42,65.98,1.42Zm46.59,105.45c-.68.79-1.38,1.55-2.12,2.3-11.27,11.61-27.04,18.83-44.47,18.83s-33.19-7.22-44.46-18.83c-.74-.75-1.45-1.52-2.13-2.31-9.6-10.92-15.42-25.23-15.42-40.87C3.97,31.8,31.79,3.98,65.98,3.98s62.02,27.82,62.02,62.01c0,15.64-5.83,29.96-15.43,40.88Z"/><path class="cls-1" d="m65.98,27.46c-11.33,0-20.51,9.19-20.51,20.52,0,9.27,6.14,17.1,14.58,19.65,1.88.56,3.87.87,5.93.87s4.05-.3,5.93-.87c8.45-2.54,14.59-10.38,14.59-19.65,0-11.33-9.18-20.52-20.52-20.52Zm0,38.48c-9.9,0-17.96-8.06-17.96-17.96s8.06-17.96,17.96-17.96,17.97,8.06,17.97,17.96-8.06,17.96-17.97,17.96Z"/><path class="cls-1" d="m113.21,110.01c-.34.38-.7.75-1.06,1.12l-1.3.21c-.12-.73-.25-1.45-.4-2.17-4.61-22.95-23-39.38-44.47-39.38s-39.85,16.43-44.46,39.38c-.15.72-.28,1.44-.4,2.17l-1.3-.21c-.37-.37-.73-.75-1.07-1.13.18-1.06.4-2.11.64-3.14,4.95-21.09,21.13-36.59,40.66-39.23,1.94-.27,3.92-.4,5.93-.4s3.99.13,5.93.4c19.54,2.64,35.72,18.14,40.66,39.24.24,1.03.46,2.08.64,3.14Z"/></g></svg>