<?xml version="1.0" encoding="UTF-8"?><svg id="Layer_2" xmlns="http://www.w3.org/2000/svg" viewBox="0 0 137.53 136.65"><defs><style>.cls-1{stroke-linecap:round;}.cls-1,.cls-2{fill:none;stroke:#723144;stroke-miterlimit:10;stroke-width:5.67px;}</style></defs><g id="Layer_1-2"><path class="cls-2" d="m90.44,108.14H14.83c-6.6,0-12-5.4-12-12V14.83c0-6.6,5.4-12,12-12h107.86c6.6,0,12,5.4,12,12v81.31"/><rect class="cls-2" x="90.44" y="57.71" width="44.25" height="76.11" rx="12" ry="12"/><path class="cls-2" d="m90.58,123.63h-53.02c-1.4,0-2.66.57-3.59,1.5s-1.49,2.19-1.49,3.59c0,2.8,2.29,5.09,5.08,5.09h74.34"/><line class="cls-2" x1="3.3" y1="89.48" x2="91.49" y2="89.48"/><line class="cls-1" x1="118.66" y1="124.93" x2="105.19" y2="124.93"/><path class="cls-2" d="m49.9,109.03c0,1.42-1.45,4.94-3.82,8.55-1.97,2.99-5.03,5.4-6.3,6.06"/></g></svg>